<svg xmlns="http://www.w3.org/2000/svg" viewBox="0 0 380 384" fill="#000" fill-rule="evenodd"><path d="M184 21L154 25L121 36L93 52L80 62L62 80L46 102L33 128L23 164L21 181L21 203L24 226L29 245L36 263L53 292L79 320L104 338L131 351L164 360L196 362L227 358L261 346L288 330L312 309L333 282L348 251L353 235L357 214L358 182L354 154L344 123L328 94L305 67L276 45L252 33L216 23Z M176 26L204 26L232 31L265 44L296 65L313 82L331 107L346 141L353 174L353 210L348 236L340 259L332 275L319 294L296 318L267 338L236 351L206 357L175 357L148 352L115 339L86 320L61 295L45 271L33 243L26 210L26 174L32 145L39 125L47 109L63 86L86 63L111 46L130 37L148 31Z M258 215L244 220L232 231L225 247L225 263L228 272L233 280L242 288L257 294L271 294L283 290L295 280L303 264L304 251L300 237L293 227L286 221L271 215Z M254 220L270 219L283 224L294 235L299 246L300 257L296 271L286 283L275 289L257 290L245 285L236 277L230 266L229 247L233 237L244 225Z M247 237L246 239L261 255L246 271L248 273L264 258L280 273L282 270L267 255L282 238L279 237L265 251L263 251L249 237Z M132 171L131 186L121 188L121 231L131 233L131 245L134 246L135 233L145 231L145 188L135 186L135 172Z M126 191L142 192L141 228L124 227Z M229 163L227 164L227 178L216 180L217 219L220 218L221 183L237 184L237 211L241 210L241 181L239 179L230 178Z M180 141L179 161L168 163L168 213L179 215L179 229L182 229L182 215L193 213L193 163L182 161L183 143L182 141Z M173 166L190 167L189 210L172 209Z M87 122L86 261L90 270L96 275L102 277L214 277L216 275L215 273L103 273L96 270L93 267L90 260L90 126L92 121L99 115L275 115L282 121L284 126L284 202L288 202L288 126L285 118L276 111L101 110L94 113Z"/></svg>