<svg xmlns="http://www.w3.org/2000/svg" viewBox="0 0 380 384" fill="#000" fill-rule="evenodd"><path d="M178 22L177 23L168 23L167 24L162 24L161 25L157 25L156 26L152 26L151 27L148 27L144 29L141 29L140 30L135 31L132 33L127 34L120 38L118 38L112 41L110 43L100 48L98 50L94 52L91 55L90 55L87 58L86 58L81 63L80 63L63 80L63 81L55 90L55 91L47 102L46 105L44 107L35 125L35 127L33 130L33 132L32 133L32 135L31 136L31 138L29 142L29 145L28 146L28 148L27 149L27 152L26 153L25 162L24 163L24 168L23 169L23 177L22 178L22 205L23 206L23 214L24 215L24 220L25 221L25 225L26 226L26 230L27 231L27 234L29 238L29 241L30 242L30 244L31 245L32 250L34 253L34 255L38 262L38 264L42 272L44 274L46 279L48 281L48 282L50 284L50 285L52 287L54 291L61 299L61 300L70 309L70 310L73 313L74 313L83 322L84 322L92 329L93 329L104 337L107 338L109 340L123 347L125 347L128 349L130 349L133 351L135 351L136 352L138 352L139 353L141 353L145 355L148 355L149 356L152 356L153 357L156 357L157 358L161 358L162 359L167 359L168 360L176 360L177 361L203 361L204 360L211 360L212 359L218 359L219 358L223 358L224 357L227 357L228 356L235 355L236 354L238 354L239 353L241 353L242 352L247 351L250 349L252 349L259 345L261 345L265 343L267 341L277 336L279 334L280 334L282 332L283 332L285 330L289 328L293 324L294 324L300 318L301 318L313 306L313 305L319 299L319 298L323 294L325 290L328 287L331 281L333 279L334 276L336 274L343 260L343 258L345 255L345 253L347 250L347 248L348 247L348 245L349 244L349 242L351 238L351 235L352 234L352 231L353 230L353 227L354 226L354 221L355 220L355 215L356 214L356 206L357 205L357 177L356 176L356 168L355 167L355 162L354 161L354 157L353 156L353 153L352 152L352 148L350 144L350 141L347 135L347 133L344 127L344 125L341 120L341 118L338 112L336 110L331 100L329 98L327 94L324 91L322 87L318 83L318 82L310 74L310 73L296 60L295 60L287 53L286 53L278 47L275 46L273 44L268 42L266 40L264 39L262 39L253 34L251 34L248 32L246 32L245 31L243 31L242 30L240 30L236 28L233 28L232 27L229 27L228 26L225 26L224 25L220 25L219 24L214 24L213 23L204 23L203 22Z M187 26L192 26L193 27L208 27L209 28L215 28L216 29L221 29L222 30L225 30L226 31L230 31L234 33L237 33L238 34L243 35L246 37L248 37L251 39L253 39L271 48L273 50L279 53L282 56L286 58L296 67L297 67L312 82L312 83L317 88L317 89L320 92L322 96L325 99L326 102L330 107L333 114L336 118L336 120L340 127L340 129L342 132L342 134L343 135L343 137L344 138L344 140L345 141L345 143L347 147L347 150L348 151L348 154L349 155L349 159L350 160L350 164L351 165L351 171L352 172L352 183L353 184L353 198L352 199L352 210L351 211L351 218L350 219L350 223L349 224L349 227L348 228L348 232L346 236L346 239L345 240L345 242L344 243L343 248L341 251L341 253L339 256L339 258L332 272L330 274L329 277L327 279L327 280L325 282L325 283L323 285L321 289L314 297L314 298L293 319L292 319L288 323L287 323L284 326L283 326L275 332L272 333L270 335L265 337L263 339L259 341L257 341L250 345L248 345L245 347L243 347L242 348L240 348L239 349L237 349L233 351L230 351L229 352L226 352L225 353L221 353L220 354L216 354L215 355L210 355L209 356L196 356L195 357L185 357L184 356L172 356L171 355L165 355L164 354L159 354L158 353L155 353L154 352L147 351L146 350L144 350L143 349L141 349L140 348L138 348L137 347L132 346L106 333L104 331L103 331L101 329L97 327L90 321L89 321L84 316L83 316L66 299L66 298L58 289L56 285L53 282L49 274L47 272L41 260L41 258L38 253L38 251L36 248L36 246L34 242L34 239L32 235L32 232L31 231L31 228L30 227L30 224L29 223L29 218L28 217L28 210L27 209L27 196L26 195L26 186L27 185L27 174L28 173L28 166L29 165L29 160L30 159L30 156L31 155L31 151L33 147L33 144L34 143L34 141L35 140L35 138L36 137L37 132L51 104L53 102L53 101L55 99L57 95L60 92L60 91L64 87L64 86L72 78L72 77L86 64L87 64L95 57L96 57L107 49L112 47L114 45L122 41L124 41L129 38L134 37L137 35L139 35L143 33L146 33L147 32L150 32L151 31L154 31L155 30L159 30L160 29L165 29L166 28L172 28L173 27L186 27Z M287 242L286 241L282 241L281 242L278 242L277 243L275 243L271 245L268 245L267 246L265 246L264 247L262 247L261 248L259 248L258 249L256 249L255 250L253 250L252 251L250 251L249 252L247 252L246 253L244 253L243 254L238 255L235 257L233 257L232 258L227 259L224 261L222 261L221 262L216 263L213 265L211 265L205 268L200 269L197 271L195 271L194 272L189 273L186 275L184 275L183 276L178 277L175 279L170 280L167 282L165 282L164 283L159 284L156 286L154 286L153 287L148 288L145 290L143 290L142 291L140 291L139 292L134 293L131 295L126 296L122 298L122 300L123 301L125 301L126 300L128 300L129 299L134 298L137 296L139 296L140 295L142 295L143 294L148 293L151 291L153 291L154 290L159 289L162 287L164 287L165 286L170 285L173 283L175 283L181 280L186 279L189 277L191 277L192 276L194 276L195 275L200 274L203 272L205 272L211 269L216 268L219 266L221 266L222 265L227 264L230 262L232 262L233 261L235 261L236 260L241 259L244 257L246 257L247 256L249 256L250 255L252 255L253 254L255 254L256 253L258 253L259 252L261 252L265 250L268 250L269 249L271 249L272 248L274 248L275 247L277 247L281 245L284 245L286 244Z M129 163L128 164L128 188L127 189L117 189L116 190L116 194L115 195L115 206L116 207L116 209L115 210L115 240L116 241L116 243L127 243L128 244L128 267L131 267L132 266L132 245L131 244L132 243L144 243L144 190L143 189L132 189L131 188L132 187L132 164L131 163Z M120 193L140 193L141 194L141 239L140 240L120 240L119 239L119 194Z M191 129L189 130L189 155L188 156L177 156L176 157L176 214L186 214L187 215L188 214L189 215L189 237L190 238L192 238L192 216L196 214L205 214L205 156L193 156L192 155L192 130Z M180 159L201 159L202 160L202 210L201 211L180 211L179 210L179 160Z M249 100L248 101L248 126L247 127L237 127L235 129L235 185L236 187L247 187L248 188L248 211L251 211L251 188L252 187L263 187L264 186L264 128L263 127L252 127L251 126L251 101Z M240 131L260 131L261 132L261 183L260 184L240 184L239 183L239 132Z"/></svg>