<svg xmlns="http://www.w3.org/2000/svg" viewBox="0 0 377 384" fill="#000" fill-rule="evenodd"><path d="M181 22L180 23L170 23L169 24L163 24L162 25L157 25L156 26L152 26L151 27L144 28L143 29L141 29L140 30L138 30L137 31L135 31L134 32L129 33L124 36L122 36L106 44L101 48L98 49L96 51L92 53L84 60L83 60L62 81L62 82L55 90L55 91L47 102L46 105L44 107L37 121L37 123L34 128L34 130L33 131L33 133L32 134L32 136L31 137L31 139L29 143L29 146L27 150L27 154L26 155L26 158L25 159L25 164L24 165L24 171L23 172L23 182L22 183L22 201L23 202L23 213L24 214L24 220L25 221L26 230L27 231L28 238L29 239L29 241L30 242L30 244L31 245L31 247L32 248L33 253L36 258L36 260L43 274L45 276L46 279L48 281L48 282L50 284L50 285L52 287L54 291L61 299L61 300L67 306L67 307L76 316L77 316L84 323L85 323L88 326L89 326L92 329L93 329L99 334L102 335L104 337L107 338L109 340L123 347L125 347L130 350L132 350L133 351L135 351L136 352L138 352L139 353L141 353L145 355L148 355L149 356L152 356L153 357L157 357L158 358L162 358L163 359L169 359L170 360L180 360L181 361L196 361L197 360L208 360L209 359L215 359L216 358L220 358L221 357L225 357L226 356L229 356L233 354L236 354L237 353L239 353L240 352L245 351L257 345L259 345L265 342L267 340L272 338L274 336L275 336L277 334L278 334L280 332L281 332L283 330L287 328L298 318L299 318L308 309L308 308L319 296L319 295L322 292L322 291L328 283L342 255L342 253L343 252L343 250L344 249L344 247L345 246L345 244L346 243L346 241L348 237L348 234L349 233L349 230L350 229L350 225L351 224L351 220L352 219L352 213L353 212L353 202L354 201L354 183L353 182L353 171L352 170L352 164L351 163L351 158L350 157L350 153L349 152L349 149L347 145L347 142L346 141L346 139L345 138L344 133L342 130L342 128L340 125L340 123L336 116L336 114L334 110L332 108L329 101L327 99L327 98L325 96L325 95L323 93L321 89L314 81L314 80L309 75L309 74L300 65L299 65L292 58L291 58L284 52L283 52L275 46L272 45L270 43L256 36L254 36L251 34L246 33L243 31L241 31L237 29L234 29L230 27L226 27L225 26L222 26L221 25L216 25L215 24L209 24L208 23L197 23L196 22Z M178 27L200 27L201 28L210 28L211 29L216 29L217 30L226 31L227 32L230 32L234 34L237 34L238 35L240 35L243 37L248 38L253 41L255 41L267 47L269 49L272 50L274 52L280 55L283 58L284 58L287 61L288 61L294 67L295 67L306 78L306 79L312 85L312 86L318 93L318 94L324 102L325 105L327 107L334 121L334 123L337 128L338 133L340 136L340 138L341 139L341 141L343 145L343 148L344 149L344 152L345 153L345 156L346 157L346 161L347 162L347 168L348 169L348 177L349 178L349 205L348 206L348 214L347 215L347 220L346 221L346 225L345 226L345 229L344 230L344 234L343 235L343 237L342 238L342 240L341 241L341 243L340 244L340 246L339 247L338 252L336 255L336 257L327 275L325 277L324 280L322 282L322 283L320 285L320 286L318 288L316 292L312 296L312 297L306 303L306 304L288 321L287 321L280 327L279 327L271 333L266 335L264 337L254 342L252 342L247 345L245 345L242 347L240 347L239 348L237 348L233 350L230 350L229 351L226 351L225 352L222 352L221 353L217 353L216 354L211 354L210 355L201 355L200 356L178 356L177 355L168 355L167 354L162 354L161 353L152 352L148 350L145 350L144 349L142 349L141 348L139 348L138 347L133 346L105 332L103 330L102 330L100 328L96 326L93 323L92 323L89 320L88 320L82 314L81 314L69 302L69 301L63 295L63 294L57 287L57 286L51 278L50 275L48 273L39 255L39 253L37 250L37 248L36 247L36 245L35 244L35 242L33 238L33 235L32 234L32 231L31 230L31 227L30 226L30 222L29 221L29 215L28 214L28 205L27 204L27 179L28 178L28 171L29 170L29 164L30 163L30 159L31 158L31 154L32 153L33 146L34 145L34 143L35 142L35 140L36 139L36 137L37 136L38 131L40 128L40 126L49 108L51 106L52 103L54 101L56 97L59 94L61 90L65 86L65 85L73 77L73 76L77 72L78 72L86 64L87 64L91 60L92 60L95 57L96 57L107 49L127 39L132 38L135 36L137 36L138 35L140 35L144 33L147 33L148 32L151 32L152 31L155 31L156 30L161 30L162 29L167 29L168 28L177 28Z M264 111L263 111L258 107L256 106L254 106L253 105L251 105L250 104L245 104L244 103L239 103L238 104L233 104L219 111L214 116L214 117L210 122L209 124L209 126L207 129L206 128L203 128L202 127L198 127L197 126L176 126L175 127L171 127L170 128L167 128L166 129L164 129L163 130L158 131L148 136L142 141L141 141L129 153L129 154L124 160L118 172L118 174L116 178L116 181L115 182L115 186L114 187L114 209L115 210L115 214L116 215L116 218L117 219L118 224L121 229L121 231L123 233L124 236L126 238L128 242L137 252L138 252L143 257L144 257L149 261L159 266L161 266L162 267L164 267L168 269L171 269L172 270L178 270L179 271L195 271L196 270L201 270L202 269L209 268L217 264L219 264L221 262L226 260L232 255L233 255L243 245L243 244L246 241L246 240L250 235L255 225L255 223L257 219L257 216L258 215L258 212L259 211L259 204L260 203L260 194L259 193L259 185L258 184L258 181L257 180L257 177L256 176L256 174L255 172L257 170L263 167L270 160L270 159L272 157L275 151L275 148L276 147L276 143L277 142L277 135L276 134L276 130L275 129L274 124L272 120L269 117L269 116Z M171 132L175 132L176 131L198 131L199 132L206 133L207 134L206 135L206 142L207 143L207 147L208 148L209 153L211 157L213 159L213 160L220 167L221 167L223 169L227 171L229 171L233 173L237 173L238 174L245 174L246 173L249 173L251 175L251 177L253 181L253 184L254 185L254 191L255 192L255 204L254 205L254 211L253 212L253 215L252 216L252 218L251 219L250 224L246 232L244 234L242 238L239 241L239 242L231 250L230 250L226 254L225 254L223 256L211 262L209 262L205 264L202 264L201 265L196 265L195 266L179 266L178 265L173 265L172 264L169 264L168 263L165 263L162 261L160 261L152 257L150 255L149 255L146 252L145 252L132 239L132 238L128 233L122 221L122 218L121 217L121 215L120 214L120 211L119 210L119 187L120 186L120 182L121 181L122 176L124 173L124 171L127 165L129 163L130 160L133 157L133 156L143 146L144 146L147 143L148 143L150 141L151 141L153 139L157 137L159 137L164 134L166 134L167 133L170 133Z M237 108L246 108L247 109L250 109L260 114L266 120L266 121L268 123L270 127L270 129L271 130L271 133L272 134L272 144L271 145L271 148L268 154L266 156L266 157L259 164L251 168L248 168L247 169L236 169L235 168L230 167L226 165L224 163L223 163L217 157L217 156L215 154L212 148L212 145L211 144L211 134L212 133L212 130L213 129L213 127L215 123L222 115L223 115L225 113L226 113L230 110L232 110L233 109L236 109Z M240 118L239 120L239 135L238 136L224 136L222 137L221 139L223 141L238 141L239 142L239 158L240 159L243 159L244 158L244 142L245 141L260 141L262 139L262 138L259 136L245 136L244 135L244 119L243 118Z"/></svg>